<mxfile host="Electron" modified="2024-07-15T17:11:45.183Z" agent="Mozilla/5.0 (Windows NT 10.0; Win64; x64) AppleWebKit/537.36 (KHTML, like Gecko) draw.io/22.1.21 Chrome/120.0.6099.109 Electron/28.1.0 Safari/537.36" etag="GLGBhACcWFq3t4ah-Ev_" version="22.1.21" type="device">
  <diagram name="Page-1" id="hfpC8_dgCmNyxHOkLfbC">
    <mxGraphModel dx="1850" dy="599" grid="1" gridSize="10" guides="1" tooltips="1" connect="1" arrows="1" fold="1" page="1" pageScale="1" pageWidth="850" pageHeight="1100" math="0" shadow="0">
      <root>
        <mxCell id="0" />
        <mxCell id="1" parent="0" />
        <mxCell id="FBDfPxHq50321vyp4Uu6-1" value="Component" style="rounded=0;whiteSpace=wrap;html=1;" vertex="1" parent="1">
          <mxGeometry x="330" y="130" width="120" height="60" as="geometry" />
        </mxCell>
        <mxCell id="FBDfPxHq50321vyp4Uu6-8" value="Extends" style="endArrow=block;endSize=16;endFill=0;html=1;rounded=0;" edge="1" parent="1" source="FBDfPxHq50321vyp4Uu6-9" target="FBDfPxHq50321vyp4Uu6-1">
          <mxGeometry width="160" relative="1" as="geometry">
            <mxPoint x="370" y="260" as="sourcePoint" />
            <mxPoint x="490" y="250" as="targetPoint" />
          </mxGeometry>
        </mxCell>
        <mxCell id="FBDfPxHq50321vyp4Uu6-9" value="BaseCPU" style="html=1;whiteSpace=wrap;" vertex="1" parent="1">
          <mxGeometry x="240" y="280" width="110" height="50" as="geometry" />
        </mxCell>
        <mxCell id="FBDfPxHq50321vyp4Uu6-10" value="BaseGPU" style="html=1;whiteSpace=wrap;" vertex="1" parent="1">
          <mxGeometry x="380" y="280" width="110" height="50" as="geometry" />
        </mxCell>
        <mxCell id="FBDfPxHq50321vyp4Uu6-11" value="Extends" style="endArrow=block;endSize=16;endFill=0;html=1;rounded=0;" edge="1" source="FBDfPxHq50321vyp4Uu6-10" parent="1" target="FBDfPxHq50321vyp4Uu6-1">
          <mxGeometry width="160" relative="1" as="geometry">
            <mxPoint x="520" y="290" as="sourcePoint" />
            <mxPoint x="520" y="220" as="targetPoint" />
          </mxGeometry>
        </mxCell>
        <mxCell id="FBDfPxHq50321vyp4Uu6-12" value="BaseRAM" style="html=1;whiteSpace=wrap;" vertex="1" parent="1">
          <mxGeometry x="510" y="280" width="110" height="50" as="geometry" />
        </mxCell>
        <mxCell id="FBDfPxHq50321vyp4Uu6-13" value="Extends" style="endArrow=block;endSize=16;endFill=0;html=1;rounded=0;" edge="1" source="FBDfPxHq50321vyp4Uu6-12" parent="1" target="FBDfPxHq50321vyp4Uu6-1">
          <mxGeometry width="160" relative="1" as="geometry">
            <mxPoint x="650" y="290" as="sourcePoint" />
            <mxPoint x="529" y="190" as="targetPoint" />
          </mxGeometry>
        </mxCell>
        <mxCell id="FBDfPxHq50321vyp4Uu6-15" value="" style="edgeStyle=orthogonalEdgeStyle;rounded=0;orthogonalLoop=1;jettySize=auto;html=1;" edge="1" parent="1" source="FBDfPxHq50321vyp4Uu6-14" target="FBDfPxHq50321vyp4Uu6-9">
          <mxGeometry relative="1" as="geometry" />
        </mxCell>
        <mxCell id="FBDfPxHq50321vyp4Uu6-14" value="CPU" style="html=1;whiteSpace=wrap;" vertex="1" parent="1">
          <mxGeometry x="240" y="380" width="110" height="50" as="geometry" />
        </mxCell>
        <mxCell id="FBDfPxHq50321vyp4Uu6-17" value="" style="edgeStyle=orthogonalEdgeStyle;rounded=0;orthogonalLoop=1;jettySize=auto;html=1;" edge="1" parent="1" source="FBDfPxHq50321vyp4Uu6-16" target="FBDfPxHq50321vyp4Uu6-10">
          <mxGeometry relative="1" as="geometry" />
        </mxCell>
        <mxCell id="FBDfPxHq50321vyp4Uu6-16" value="GPU" style="html=1;whiteSpace=wrap;" vertex="1" parent="1">
          <mxGeometry x="380" y="380" width="110" height="50" as="geometry" />
        </mxCell>
        <mxCell id="FBDfPxHq50321vyp4Uu6-19" value="" style="edgeStyle=orthogonalEdgeStyle;rounded=0;orthogonalLoop=1;jettySize=auto;html=1;" edge="1" parent="1" source="FBDfPxHq50321vyp4Uu6-18" target="FBDfPxHq50321vyp4Uu6-12">
          <mxGeometry relative="1" as="geometry" />
        </mxCell>
        <mxCell id="FBDfPxHq50321vyp4Uu6-18" value="RAM" style="html=1;whiteSpace=wrap;" vertex="1" parent="1">
          <mxGeometry x="510" y="380" width="110" height="50" as="geometry" />
        </mxCell>
        <mxCell id="FBDfPxHq50321vyp4Uu6-21" style="edgeStyle=orthogonalEdgeStyle;rounded=0;orthogonalLoop=1;jettySize=auto;html=1;exitX=1;exitY=0.5;exitDx=0;exitDy=0;" edge="1" parent="1" source="FBDfPxHq50321vyp4Uu6-20" target="FBDfPxHq50321vyp4Uu6-1">
          <mxGeometry relative="1" as="geometry" />
        </mxCell>
        <mxCell id="FBDfPxHq50321vyp4Uu6-22" value="uses" style="edgeLabel;html=1;align=center;verticalAlign=middle;resizable=0;points=[];" vertex="1" connectable="0" parent="FBDfPxHq50321vyp4Uu6-21">
          <mxGeometry x="-0.3889" y="1" relative="1" as="geometry">
            <mxPoint as="offset" />
          </mxGeometry>
        </mxCell>
        <mxCell id="FBDfPxHq50321vyp4Uu6-20" value="ComponentBuilder" style="rounded=0;whiteSpace=wrap;html=1;" vertex="1" parent="1">
          <mxGeometry x="-40" y="130" width="120" height="60" as="geometry" />
        </mxCell>
        <mxCell id="FBDfPxHq50321vyp4Uu6-24" style="edgeStyle=orthogonalEdgeStyle;rounded=0;orthogonalLoop=1;jettySize=auto;html=1;exitX=0.5;exitY=0;exitDx=0;exitDy=0;" edge="1" parent="1" source="FBDfPxHq50321vyp4Uu6-23" target="FBDfPxHq50321vyp4Uu6-18">
          <mxGeometry relative="1" as="geometry" />
        </mxCell>
        <mxCell id="FBDfPxHq50321vyp4Uu6-25" style="edgeStyle=orthogonalEdgeStyle;rounded=0;orthogonalLoop=1;jettySize=auto;html=1;exitX=0.5;exitY=0;exitDx=0;exitDy=0;" edge="1" parent="1" source="FBDfPxHq50321vyp4Uu6-23" target="FBDfPxHq50321vyp4Uu6-16">
          <mxGeometry relative="1" as="geometry" />
        </mxCell>
        <mxCell id="FBDfPxHq50321vyp4Uu6-26" style="edgeStyle=orthogonalEdgeStyle;rounded=0;orthogonalLoop=1;jettySize=auto;html=1;exitX=0.5;exitY=0;exitDx=0;exitDy=0;" edge="1" parent="1" source="FBDfPxHq50321vyp4Uu6-23" target="FBDfPxHq50321vyp4Uu6-14">
          <mxGeometry relative="1" as="geometry" />
        </mxCell>
        <mxCell id="FBDfPxHq50321vyp4Uu6-27" value="Contains" style="edgeLabel;html=1;align=center;verticalAlign=middle;resizable=0;points=[];" vertex="1" connectable="0" parent="FBDfPxHq50321vyp4Uu6-26">
          <mxGeometry x="-0.8389" y="1" relative="1" as="geometry">
            <mxPoint as="offset" />
          </mxGeometry>
        </mxCell>
        <mxCell id="FBDfPxHq50321vyp4Uu6-23" value="Computer" style="rounded=0;whiteSpace=wrap;html=1;" vertex="1" parent="1">
          <mxGeometry x="230" y="520" width="390" height="60" as="geometry" />
        </mxCell>
        <mxCell id="FBDfPxHq50321vyp4Uu6-28" value="CPUBuilder" style="rounded=0;whiteSpace=wrap;html=1;" vertex="1" parent="1">
          <mxGeometry x="90" y="280" width="120" height="60" as="geometry" />
        </mxCell>
        <mxCell id="FBDfPxHq50321vyp4Uu6-29" value="Extends" style="endArrow=block;endSize=16;endFill=0;html=1;rounded=0;" edge="1" parent="1" source="FBDfPxHq50321vyp4Uu6-28" target="FBDfPxHq50321vyp4Uu6-20">
          <mxGeometry width="160" relative="1" as="geometry">
            <mxPoint x="160" y="270" as="sourcePoint" />
            <mxPoint x="219" y="180" as="targetPoint" />
          </mxGeometry>
        </mxCell>
        <mxCell id="FBDfPxHq50321vyp4Uu6-30" value="GPUBuilder" style="rounded=0;whiteSpace=wrap;html=1;" vertex="1" parent="1">
          <mxGeometry x="-40" y="280" width="120" height="60" as="geometry" />
        </mxCell>
        <mxCell id="FBDfPxHq50321vyp4Uu6-31" value="Extends" style="endArrow=block;endSize=16;endFill=0;html=1;rounded=0;" edge="1" source="FBDfPxHq50321vyp4Uu6-30" parent="1" target="FBDfPxHq50321vyp4Uu6-20">
          <mxGeometry width="160" relative="1" as="geometry">
            <mxPoint x="30" y="270" as="sourcePoint" />
            <mxPoint x="-50" y="190" as="targetPoint" />
          </mxGeometry>
        </mxCell>
        <mxCell id="FBDfPxHq50321vyp4Uu6-32" value="RAMBuilder" style="rounded=0;whiteSpace=wrap;html=1;" vertex="1" parent="1">
          <mxGeometry x="-170" y="280" width="120" height="60" as="geometry" />
        </mxCell>
        <mxCell id="FBDfPxHq50321vyp4Uu6-33" value="Extends" style="endArrow=block;endSize=16;endFill=0;html=1;rounded=0;" edge="1" source="FBDfPxHq50321vyp4Uu6-32" parent="1" target="FBDfPxHq50321vyp4Uu6-20">
          <mxGeometry width="160" relative="1" as="geometry">
            <mxPoint x="-100" y="270" as="sourcePoint" />
            <mxPoint x="-76" y="190" as="targetPoint" />
          </mxGeometry>
        </mxCell>
      </root>
    </mxGraphModel>
  </diagram>
</mxfile>
